<svg xmlns="http://www.w3.org/2000/svg" width="11.711" height="25.97" viewBox="0 0 11.711 25.97">
  <path id="facebook" d="M11.581,25.643a.322.322,0,0,0,.317.327h4.526a.322.322,0,0,0,.317-.327V12.883h3.281a.321.321,0,0,0,.317-.3l.315-3.844a.333.333,0,0,0-.082-.249.313.313,0,0,0-.233-.106h-3.6V5.657A1.141,1.141,0,0,1,17.864,4.5h2.529a.322.322,0,0,0,.317-.327V.327A.322.322,0,0,0,20.393,0H16.121a4.61,4.61,0,0,0-4.54,4.677V8.384H9.317A.322.322,0,0,0,9,8.711v3.845a.322.322,0,0,0,.317.327h2.263Z" transform="translate(-9)" fill="#fdc63e" fill-rule="evenodd"/>
</svg>
