<svg xmlns="http://www.w3.org/2000/svg" width="24.724" height="24.724" viewBox="0 0 24.724 24.724">
  <path id="instagram" d="M22.392,17.277a5.115,5.115,0,0,1-5.115,5.115H7.447a5.115,5.115,0,0,1-5.115-5.115V7.447A5.115,5.115,0,0,1,7.447,2.332h9.829a5.115,5.115,0,0,1,5.115,5.115v9.83Zm2.333-9.83A7.447,7.447,0,0,0,17.276,0H7.448A7.447,7.447,0,0,0,0,7.447v9.83a7.448,7.448,0,0,0,7.448,7.447h9.828a7.448,7.448,0,0,0,7.448-7.448ZM12.4,16.432a3.911,3.911,0,1,1,3.911-3.911A3.916,3.916,0,0,1,12.4,16.432Zm0-10.016a6.105,6.105,0,1,0,6.106,6.105A6.112,6.112,0,0,0,12.4,6.416Zm6.462-1.864A1.454,1.454,0,1,0,20.32,6.005a1.454,1.454,0,0,0-1.454-1.454Z" fill="#fdc63e"/>
</svg>
