<svg xmlns="http://www.w3.org/2000/svg" width="24.724" height="20.366" viewBox="0 0 24.724 20.366">
  <path id="twitter" d="M24.632,5.441a10.177,10.177,0,0,1-2.5.713c.4-.068,1-.8,1.232-1.091A4.6,4.6,0,0,0,24.2,3.549c.022-.043.039-.1,0-.131a.145.145,0,0,0-.133.012,12.762,12.762,0,0,1-2.966,1.136.2.2,0,0,1-.2-.054,2.4,2.4,0,0,0-.259-.266,5.25,5.25,0,0,0-1.437-.881,5,5,0,0,0-2.2-.355A5.274,5.274,0,0,0,14.9,3.6a5.4,5.4,0,0,0-1.686,1.377A5.179,5.179,0,0,0,12.2,7a5.492,5.492,0,0,0-.054,2.13c.017.119.006.135-.1.119A15.84,15.84,0,0,1,1.854,4.058c-.119-.136-.184-.136-.281.01a5.169,5.169,0,0,0,.881,6.108c.2.189.4.379.627.551a5.189,5.189,0,0,1-1.967-.551c-.119-.075-.178-.032-.189.1a3.083,3.083,0,0,0,.032.584,5.228,5.228,0,0,0,3.222,4.168,3.044,3.044,0,0,0,.654.2,5.826,5.826,0,0,1-1.929.06c-.141-.028-.195.042-.141.178a5.423,5.423,0,0,0,4.053,3.394c.184.032.368.032.552.076-.011.016-.022.016-.032.032-.456.694-2.034,1.211-2.768,1.468a9.924,9.924,0,0,1-4.2.538c-.226-.033-.274-.031-.335,0s-.008.093.065.151c.286.189.578.357.875.519A13.869,13.869,0,0,0,3.778,22.77a14.971,14.971,0,0,0,14.533-3.4c2.977-2.959,4.021-7.039,4.021-11.126,0-.159.189-.247.3-.332A9.77,9.77,0,0,0,24.6,5.857a.6.6,0,0,0,.122-.394V5.441C24.724,5.376,24.732,5.4,24.632,5.441Z" transform="translate(0 -2.999)" fill="#fdc63e" fill-rule="evenodd"/>
</svg>
